<?xml version="1.0" encoding="UTF-8"?>
<!DOCTYPE svg PUBLIC "-//W3C//DTD SVG 1.1//EN" "http://www.w3.org/Graphics/SVG/1.1/DTD/svg11.dtd">
<!-- Creator: CorelDRAW X7 -->
<svg xmlns="http://www.w3.org/2000/svg" xml:space="preserve" width="5in" height="2in" version="1.1" style="shape-rendering:geometricPrecision; text-rendering:geometricPrecision; image-rendering:optimizeQuality; fill-rule:evenodd; clip-rule:evenodd"
viewBox="0 0 5000 2000"
 xmlns:xlink="http://www.w3.org/1999/xlink">
 <defs>
  <style type="text/css">
   <![CDATA[
    .fil2 {fill:none}
    .fil1 {fill:none;fill-rule:nonzero}
    .fil0 {fill:#E6E7E8;fill-rule:nonzero}
   ]]>
  </style>
 </defs>
 <g id="Layer_x0020_1">
  <metadata id="CorelCorpID_0Corel-Layer"/>
  <path class="fil0" d="M647 735l0 243 -27 0c-28,-148 -102,-221 -221,-221 -63,0 -110,25 -139,75 -30,50 -44,155 -44,316 0,132 6,222 19,269 12,48 34,82 65,102 31,21 66,31 103,31 49,0 95,-18 138,-55 42,-37 76,-96 99,-177l29 0 -10 249 -25 0c-9,-26 -24,-48 -44,-66 -64,54 -130,80 -198,80 -86,0 -165,-40 -236,-122 -71,-82 -107,-182 -107,-301 0,-120 35,-223 105,-307 70,-84 151,-126 243,-126 71,0 133,26 187,77 16,-25 28,-48 36,-67l27 0zm172 796l0 -417 -99 0 0 -31 100 0c51,0 90,-3 117,-8l0 115 3 0c28,-76 70,-115 126,-115 24,0 44,7 59,22 15,15 22,33 22,54 0,20 -6,36 -18,47 -12,13 -28,19 -47,19 -34,0 -52,-18 -52,-53l2 -26c0,-9 -4,-14 -12,-14 -14,0 -31,18 -52,54 -20,36 -31,92 -31,166l0 187 102 0 0 31 -319 0 0 -31 99 0zm430 -692c0,-18 7,-33 20,-46 13,-13 28,-20 46,-20 18,0 34,7 47,19 13,13 20,29 20,47 0,19 -7,35 -20,48 -13,12 -28,18 -47,18 -18,0 -34,-6 -47,-19 -13,-13 -19,-28 -19,-47zm123 235l0 457 79 0 0 31 -283 0 0 -31 85 0 0 -417 -85 0 0 -31 86 0c42,0 81,-3 118,-9zm327 -130l0 139 145 0 0 31 -145 0 0 302c0,44 4,75 9,91 6,16 22,24 48,24 19,0 38,-6 56,-19 18,-13 32,-33 41,-61l27 0c-19,79 -76,119 -171,119 -40,0 -69,-8 -88,-22 -18,-14 -30,-32 -34,-53 -4,-21 -6,-50 -6,-86l0 -295 -109 0 0 -31 109 0 0 -129c40,0 80,-3 118,-10zm296 -105c0,-18 6,-33 20,-46 13,-13 28,-20 46,-20 18,0 34,7 47,19 13,13 20,29 20,47 0,19 -7,35 -20,48 -13,12 -29,18 -47,18 -18,0 -34,-6 -47,-19 -13,-13 -19,-28 -19,-47zm122 235l0 457 80 0 0 31 -283 0 0 -31 85 0 0 -417 -85 0 0 -31 86 0c42,0 81,-3 117,-9zm511 408l-3 0c-33,59 -81,88 -142,88 -59,0 -112,-26 -160,-77 -48,-52 -72,-113 -72,-183 0,-66 22,-123 66,-171 44,-47 94,-71 152,-71 71,0 123,34 156,103l3 0 0 -96c48,5 95,8 139,8l69 0 0 31 -90 0 0 733 83 0 0 35 -300 0 0 -35 99 0 0 -365zm0 -158c0,-49 -4,-87 -12,-112 -7,-25 -23,-51 -46,-77 -24,-27 -56,-40 -96,-40 -20,0 -37,7 -52,20 -15,13 -25,33 -29,61 -3,28 -5,78 -5,148 0,89 7,148 21,176 15,28 38,42 71,42 33,0 62,-10 88,-29 26,-20 42,-43 50,-71 6,-27 10,-66 10,-118zm768 -241l0 448 82 0 0 31 -82 0c-64,0 -104,3 -120,8l0 -114 -3 0c-36,76 -94,114 -173,114 -45,0 -81,-12 -109,-36 -27,-24 -41,-74 -41,-150l0 -270 -88 0 0 -31 207 0 0 322c0,50 3,85 10,105 6,19 21,29 46,29 38,0 72,-20 104,-60 32,-40 48,-101 48,-181l0 -184 -98 0 0 -31 217 0zm577 203l-308 0c-3,120 3,195 20,223 16,27 45,41 87,41 86,0 145,-50 175,-150l26 0c-13,61 -38,106 -76,134 -37,29 -79,44 -125,44 -65,0 -122,-24 -171,-73 -48,-49 -72,-110 -72,-183 0,-72 23,-132 71,-181 47,-49 102,-73 165,-73 54,0 102,19 143,58 41,38 63,92 65,160zm-308 -27l177 0c3,-29 5,-51 5,-66 0,-65 -29,-98 -88,-98 -30,0 -53,8 -69,24 -17,15 -25,37 -25,63l0 77z"/>
  <path class="fil0" d="M4262 1660c0,0 426,0 426,0 0,0 171,-150 171,-150 0,0 0,-677 0,-677 0,0 85,0 85,0 0,0 0,-226 0,-226 0,0 -426,0 -426,0 0,0 0,226 0,226 0,0 85,0 85,0 0,0 0,526 0,526 0,0 -85,76 -85,76 0,0 -85,0 -85,0 0,0 -85,-76 -85,-76 0,0 0,-526 0,-526 0,0 85,0 85,0 0,0 0,-226 0,-226 0,0 -426,0 -426,0 0,0 0,226 0,226 0,0 85,0 85,0 0,0 0,677 0,677 0,0 170,150 170,150z"/>
  <path class="fil0" d="M3872 808c-6,-10 -9,-31 4,-38 14,-6 29,8 34,19 5,11 8,32 -5,39 -14,6 -28,-9 -33,-20z"/>
  <path class="fil0" d="M3854 833c4,7 7,22 -2,27 -9,5 -19,-5 -22,-13 -4,-7 -7,-21 2,-26 9,-5 18,5 22,12z"/>
  <path class="fil0" d="M4003 624c4,14 -17,23 -22,8 -6,-15 17,-22 22,-8z"/>
  <path class="fil1" d="M3883 709c6,-27 66,-45 75,-19 8,23 3,60 -22,70 -25,11 -45,-14 -54,-35"/>
  <g id="_1552258419936">
   <g>
    <g>
     <path class="fil0" d="M4129 728c-72,7 -32,-69 -17,-92 29,-41 104,-101 171,-107 74,-4 20,61 3,83 -28,36 -98,107 -157,116z"/>
     <path class="fil0" d="M4068 669c-27,-60 11,-139 77,-179 59,-32 137,-43 163,18 16,51 -50,129 -96,166 -54,39 -110,59 -144,-5z"/>
     <path class="fil0" d="M4095 705c-19,-55 159,-193 207,-230 19,-13 236,-168 260,-146 5,18 -191,205 -214,226 -23,21 -207,185 -253,150z"/>
     <path class="fil0" d="M4243 572c-9,-60 -26,-120 -38,-180 -3,-62 -3,-116 25,-175 8,-26 19,-43 44,-62 45,-33 -7,19 -16,40 -40,72 -62,146 -82,221 -10,65 -27,156 -29,220 33,-21 64,-42 96,-64z"/>
     <path class="fil0" d="M4217 607c-43,-40 -85,-81 -119,-124 -10,-14 -24,-42 -18,-57 12,-25 24,47 25,50 13,38 38,128 55,159 19,-9 38,-19 57,-28z"/>
     <path class="fil0" d="M4604 271c-2,1 -12,10 -16,8 -4,-2 5,-12 7,-13 2,-2 13,-11 17,-9 3,3 -6,12 -8,14z"/>
     <path class="fil0" d="M4379 103c-7,4 -8,8 -6,14 1,1 9,12 11,13 9,10 59,77 64,78 16,-13 -20,-76 -33,-92 -4,-5 -8,-9 -13,-13 -8,-4 -15,-4 -23,0z"/>
    </g>
   </g>
  </g>
  <path class="fil2" d="M4405 501c-50,-26 -352,-200 -361,-226"/>
 </g>
</svg>
